<?xml version="1.0" encoding="UTF-8" standalone="no"?>
<svg
   xmlns:dc="http://purl.org/dc/elements/1.1/"
   xmlns:cc="http://creativecommons.org/ns#"
   xmlns:rdf="http://www.w3.org/1999/02/22-rdf-syntax-ns#"
   xmlns:svg="http://www.w3.org/2000/svg"
   xmlns="http://www.w3.org/2000/svg"
   xmlns:sodipodi="http://sodipodi.sourceforge.net/DTD/sodipodi-0.dtd"
   xmlns:inkscape="http://www.inkscape.org/namespaces/inkscape"
   viewBox="0 0 61.7998 61.7998"
   version="1.1"
   id="svg4826"
   sodipodi:docname="avatar.svg"
   width="61.799801"
   height="61.799801"
   inkscape:version="0.92.5 (2060ec1f9f, 2020-04-08)">
  <defs
     id="defs4830" />
  <sodipodi:namedview
     pagecolor="#ffffff"
     bordercolor="#666666"
     borderopacity="1"
     objecttolerance="10"
     gridtolerance="10"
     guidetolerance="10"
     inkscape:pageopacity="0"
     inkscape:pageshadow="2"
     inkscape:window-width="1366"
     inkscape:window-height="711"
     id="namedview4828"
     showgrid="false"
     fit-margin-top="0"
     fit-margin-left="0"
     fit-margin-right="0"
     fit-margin-bottom="0"
     inkscape:zoom="3.8187825"
     inkscape:cx="30.8999"
     inkscape:cy="30.8999"
     inkscape:window-x="0"
     inkscape:window-y="0"
     inkscape:window-maximized="1"
     inkscape:current-layer="Layer_2" />
  <title
     id="title4800">Avatar User Boy</title>
  <g
     id="Layer_2"
     data-name="Layer 2">
    <circle
       style="fill:#ffffff"
       id="circle4802"
       r="30.8999"
       cy="30.8999"
       cx="30.8999" />
    <path
       style="fill:#677079;fill-rule:evenodd"
       inkscape:connector-curvature="0"
       id="path4804"
       d="M 52.587,52.908 A 30.895,30.895 0 0 1 8.92,52.617 a 9.206,9.206 0 0 1 4.037,-4.832 19.799,19.799 0 0 1 4.075,-2.322 c -2.198,-7.553 3.777,-11.266 6.063,-12.335 0,3.487 3.265,1.173 7.317,1.217 3.336,0.037 9.933,3.395 9.933,-1.035 3.67,1.086 7.67,8.08 4.917,12.377 a 17.604,17.604 0 0 1 3.181,2.002 10.192,10.192 0 0 1 4.144,5.22 z" />
    <path
       style="fill:#f9dca4;fill-rule:evenodd"
       inkscape:connector-curvature="0"
       id="path4806"
       d="m 24.032,38.68 14.92,0.09 v 3.437 l -0.007,0.053 a 2.784,2.784 0 0 1 -0.07,0.462 l -0.05,0.341 -0.03,0.071 c -0.966,5.074 -5.193,7.035 -7.803,8.401 -2.75,-1.498 -6.638,-4.197 -6.947,-8.972 l -0.013,-0.059 v -0.2 a 8.897,8.897 0 0 1 -0.004,-0.207 c 0,0.036 0.003,0.07 0.004,0.106 z" />
    <path
       style="opacity:0.11000001;fill-rule:evenodd"
       inkscape:connector-curvature="0"
       id="path4808"
       d="m 38.953,38.617 v 4.005 a 7.167,7.167 0 0 1 -0.095,1.108 6.01,6.01 0 0 1 -0.38,1.321 c -5.184,3.915 -13.444,0.704 -14.763,-5.983 z" />
    <path
       style="fill:#f9dca4;fill-rule:evenodd"
       inkscape:connector-curvature="0"
       id="path4810"
       d="m 18.104,25.235 c -4.94,1.27 -0.74,7.29 2.367,7.264 a 19.805,19.805 0 0 1 -2.367,-7.264 z" />
    <path
       style="fill:#f9dca4;fill-rule:evenodd"
       inkscape:connector-curvature="0"
       id="path4812"
       d="m 43.837,25.235 c 4.94,1.27 0.74,7.29 -2.368,7.263 a 19.8,19.8 0 0 0 2.368,-7.263 z" />
    <path
       style="fill:#ffe8be;fill-rule:evenodd"
       inkscape:connector-curvature="0"
       id="path4814"
       d="m 30.733,11.361 c 20.523,0 12.525,32.446 0,32.446 -11.83,0 -20.523,-32.446 0,-32.446 z" />
    <path
       style="fill:#8a5c42;fill-rule:evenodd"
       inkscape:connector-curvature="0"
       id="path4816"
       d="m 21.047,22.105 a 1.738,1.738 0 0 1 -0.414,2.676 C 19.183,25.974 19.13,30.134 19.13,30.134 18.57,29.578 18.583,26.6 17.369,24.879 16.155,23.158 15.337,11.116 22.126,6.737 a 4.266,4.266 0 0 0 -0.933,3.6 c 0,0 4.716,-6.763 12.54,-6.568 a 5.029,5.029 0 0 0 -2.487,3.26 c 0,0 6.84,-2.822 12.54,0.535 a 13.576,13.576 0 0 0 -4.145,1.947 c 2.768,0.076 5.443,0.59 7.46,2.384 a 3.412,3.412 0 0 0 -2.176,4.38 c 0.856,3.503 0.936,6.762 0.107,8.514 -0.829,1.752 -1.22,0.621 -1.739,4.295 a 1.609,1.609 0 0 1 -0.77,1.214 c -0.02,0.266 0.382,-3.756 -0.655,-4.827 -1.036,-1.07 -0.385,-2.385 0.029,-3.163 2.89,-5.427 -5.765,-7.886 -10.496,-7.88 -4.103,0.005 -14,1.87 -10.354,7.677 z" />
    <path
       style="fill:#434955;fill-rule:evenodd"
       inkscape:connector-curvature="0"
       id="path4818"
       d="m 19.79,49.162 c 0.03,0.038 10.418,13.483 22.63,-0.2 -1.475,4.052 -7.837,7.27 -11.476,7.26 -6.95,-0.02 -10.796,-5.6 -11.154,-7.06 z" />
    <path
       style="fill:#e6e6e6;fill-rule:evenodd"
       inkscape:connector-curvature="0"
       id="path4820"
       d="m 36.336,61.323 c -0.41,0.072 -0.822,0.135 -1.237,0.192 v -8.937 a 0.576,0.576 0 0 1 0.618,-0.516 0.576,0.576 0 0 1 0.619,0.516 z m -9.82,0.166 q -0.622,-0.089 -1.237,-0.2 v -8.711 a 0.576,0.576 0 0 1 0.618,-0.516 0.576,0.576 0 0 1 0.62,0.516 z" />
  </g>
  <metadata
     id="metadata4824">
    <rdf:RDF>
      <rdf:Description
         about="https://iconscout.com/legal#licenses"
         dc:title="avatar,user,boy"
         dc:description="avatar,user,boy"
         dc:publisher="Iconscout"
         dc:date="2017-09-22"
         dc:format="image/svg+xml"
         dc:language="en">
        <dc:creator>
          <rdf:Bag>
            <rdf:li>Dmitriy Bondarchuk</rdf:li>
          </rdf:Bag>
        </dc:creator>
      </rdf:Description>
      <cc:Work
         rdf:about="">
        <dc:format>image/svg+xml</dc:format>
        <dc:type
           rdf:resource="http://purl.org/dc/dcmitype/StillImage" />
        <dc:title>Avatar User Boy</dc:title>
      </cc:Work>
    </rdf:RDF>
  </metadata>
</svg>
