<?xml version="1.0" encoding="UTF-8" standalone="no"?>
<svg
   xmlns:dc="http://purl.org/dc/elements/1.1/"
   xmlns:cc="http://creativecommons.org/ns#"
   xmlns:rdf="http://www.w3.org/1999/02/22-rdf-syntax-ns#"
   xmlns:svg="http://www.w3.org/2000/svg"
   xmlns="http://www.w3.org/2000/svg"
   xmlns:sodipodi="http://sodipodi.sourceforge.net/DTD/sodipodi-0.dtd"
   xmlns:inkscape="http://www.inkscape.org/namespaces/inkscape"
   width="30"
   height="30"
   viewBox="0 0 30 30"
   version="1.1"
   id="svg2823"
   sodipodi:docname="coin.svg"
   style="fill:none"
   inkscape:version="0.92.5 (2060ec1f9f, 2020-04-08)">
  <metadata
     id="metadata2829">
    <rdf:RDF>
      <cc:Work
         rdf:about="">
        <dc:format>image/svg+xml</dc:format>
        <dc:type
           rdf:resource="http://purl.org/dc/dcmitype/StillImage" />
        <dc:title></dc:title>
      </cc:Work>
    </rdf:RDF>
  </metadata>
  <defs
     id="defs2827" />
  <sodipodi:namedview
     pagecolor="#ffffff"
     bordercolor="#666666"
     borderopacity="1"
     objecttolerance="10"
     gridtolerance="10"
     guidetolerance="10"
     inkscape:pageopacity="0"
     inkscape:pageshadow="2"
     inkscape:window-width="1366"
     inkscape:window-height="711"
     id="namedview2825"
     showgrid="false"
     inkscape:zoom="9.2709556"
     inkscape:cx="1.43629"
     inkscape:cy="8.6102761"
     inkscape:window-x="0"
     inkscape:window-y="0"
     inkscape:window-maximized="1"
     inkscape:current-layer="g3470"
     fit-margin-top="0"
     fit-margin-left="0"
     fit-margin-right="0"
     fit-margin-bottom="0"
     showborder="false" />
  <path
     d="m 54.166363,38.312618 c 0,-0.584 -0.505,-1.057 -1.127,-1.057 h -13.673 c -0.623,0 -1.057,0.473 -1.057,1.057 0,0.397 0.204,0.739 0.529,0.92 v 0.666 h 2.114 v -0.529 h 2.114 v 0.529 h 2.114 v -0.529 h 2.114 v 0.529 h 2.114 v -0.529 h 2.114 v 0.529 h 2.115 v -0.693 c 0.317,-0.188 0.529,-0.517 0.529,-0.893 z m 1.585,11.164 c 0,0.2103 -0.0835,0.412 -0.2322,0.5607 -0.1488,0.1488 -0.3505,0.2323 -0.5608,0.2323 h -17.44198 c -0.21031,0 -0.41202,-0.0835 -0.56073,-0.2323 -0.14872,-0.1487 -0.23227,-0.3504 -0.23227,-0.5607 0,-0.2103 0.08355,-0.412 0.23227,-0.5607 0.14871,-0.1487 0.35042,-0.2323 0.56073,-0.2323 h 17.44298 c 0.437,0 0.792,0.355 0.792,0.793 z"
     id="path2803"
     inkscape:connector-curvature="0"
     style="fill:#f4900c" />
  <path
     d="m 7.8638549,55.066448 c 0,0.1403 -0.0557,0.2749 -0.1549,0.3741 -0.0992,0.0992 -0.2338,0.1549 -0.3741,0.1549 h -15.857 c -0.13467,-0.0083 -0.26112,-0.0676 -0.35355,-0.1659 -0.09244,-0.0983 -0.1439,-0.2282 -0.1439,-0.3631 0,-0.1349 0.05146,-0.2648 0.1439,-0.3631 0.09243,-0.0983 0.21888,-0.1576 0.35355,-0.1659 l 15.857,0.003 c 0.0693,-3e-4 0.138,0.0131 0.2021,0.0395 0.0641,0.0263 0.1224,0.0649 0.1715,0.1138 0.0491,0.0489 0.0881,0.1069 0.1148,0.1709 0.0267,0.0639 0.0405,0.1325 0.0406,0.2018 z m -14.271,0.614 h 11.629 v 1.186 h -11.629 z"
     id="path2805"
     inkscape:connector-curvature="0"
     style="fill:#f4900c" />
  <path
     d="m -55.455416,20.678499 c 0,0.584 -0.316,1.057 -0.705,1.057 h -0.705 c -0.389,0 -0.705,-0.473 -0.705,-1.057 v -8.014 c 0,-0.584 0.316,-1.057 0.705,-1.057 h 0.705 c 0.389,0 0.705,0.473 0.705,1.057 z m 12.686,0 c 0,0.584 -0.315,1.057 -0.705,1.057 h -0.705 c -0.389,0 -0.705,-0.473 -0.705,-1.057 v -8.014 c 0,-0.584 0.315,-1.057 0.705,-1.057 h 0.705 c 0.389,0 0.705,0.473 0.705,1.057 z m -8.457,0 c 0,0.584 -0.316,1.057 -0.705,1.057 h -0.705 c -0.389,0 -0.705,-0.473 -0.705,-1.057 v -8.014 c 0,-0.584 0.316,-1.057 0.705,-1.057 h 0.705 c 0.389,0 0.705,0.473 0.705,1.057 z m 4.228,0 c 0,0.584 -0.316,1.057 -0.705,1.057 h -0.704 c -0.389,0 -0.705,-0.473 -0.705,-1.057 v -8.014 c 0,-0.584 0.316,-1.057 0.705,-1.057 h 0.704 c 0.389,0 0.705,0.473 0.705,1.057 z"
     id="path2807"
     inkscape:connector-curvature="0"
     style="fill:#ffd983" />
  <path
     d="m 59.047719,31.579381 c 0,0.584 -0.473,1.057 -1.057,1.057 h -13.743 c -0.2803,0 -0.5492,-0.1114 -0.7474,-0.3096 -0.1982,-0.1982 -0.3096,-0.4671 -0.3096,-0.7474 0,-0.2803 0.1114,-0.5492 0.3096,-0.7474 0.1982,-0.1982 0.4671,-0.3096 0.7474,-0.3096 h 13.743 c 0.583,0 1.057,0.473 1.057,1.057 z"
     id="path2809"
     inkscape:connector-curvature="0"
     style="fill:#ffcc4d" />
  <path
     d="m 73.528448,43.314347 c 0,0.584 -0.473,1.057 -1.057,1.057 h -15.858 c -0.28036,0 -0.54921,-0.1114 -0.74743,-0.3096 -0.19823,-0.1982 -0.30959,-0.4671 -0.30959,-0.7474 0,-0.2803 0.11136,-0.5492 0.30959,-0.7474 0.19822,-0.1982 0.46707,-0.3096 0.74743,-0.3096 h 15.857 c 0.584,0 1.058,0.473 1.058,1.057 z"
     id="path2811"
     inkscape:connector-curvature="0"
     style="fill:#ffd983" />
  <path
     d="m -21.435077,39.83616 c 0,0.2103 -0.0835,0.412 -0.2322,0.5607 -0.1488,0.1488 -0.3505,0.2323 -0.5608,0.2323 h -17.44198 c -0.10414,0 -0.20725,-0.0205 -0.30347,-0.0604 -0.09621,-0.0398 -0.18363,-0.0982 -0.25726,-0.1719 -0.07364,-0.0736 -0.13205,-0.161 -0.1719,-0.2572 -0.03986,-0.0962 -0.06037,-0.1994 -0.06037,-0.3035 0,-0.1041 0.02051,-0.2073 0.06037,-0.3035 0.03985,-0.0962 0.09826,-0.1836 0.1719,-0.2572 0.07363,-0.0737 0.16105,-0.1321 0.25726,-0.1719 0.09622,-0.0399 0.19933,-0.0604 0.30347,-0.0604 h 17.44298 c 0.437,0 0.792,0.355 0.792,0.793 z"
     id="path2813"
     inkscape:connector-curvature="0"
     style="fill:#ffd983" />
  <path
     d="m -37.96923,49.050754 c 0,-0.584 -0.505,-1.057 -1.127,-1.057 h -13.673 c -0.623,0 -1.057,0.473 -1.057,1.057 0,0.397 0.204,0.739 0.529,0.92 v 0.666 h 2.114 v -0.529 h 2.114 v 0.529 h 2.114 v -0.529 h 2.114 v 0.529 h 2.114 v -0.529 h 2.114 v 0.529 h 2.115 v -0.693 c 0.317,-0.188 0.529,-0.517 0.529,-0.893 z"
     id="path2815"
     inkscape:connector-curvature="0"
     style="fill:#ffcc4d" />
  <path
     d="m 53.339716,22.448093 c 0,-0.545 0.53497,-0.763 0.53497,-0.763 l 7.878,-3.7 7.953,3.7 c 0,0 0.548,0.122 0.548,0.767 v 0.291 h -16.91397 z"
     id="path2817"
     inkscape:connector-curvature="0"
     style="fill:#ffd983" />
  <path
     d="m 47.610245,6.0569056 c 0,0 -5.455,2.571 -5.999,2.803 -0.545,0.231 -0.363,0.611 0.001,0.611 h 11.97 c 0.562,0 0.429,-0.429 -0.017,-0.661 -0.446,-0.231 -5.955,-2.753 -5.955,-2.753 z"
     id="path2819"
     inkscape:connector-curvature="0"
     style="fill:#ffac33" />
  <path
     d="m -30.424281,27.470906 c 0,0.1403 -0.0557,0.2749 -0.1549,0.3741 -0.0992,0.0992 -0.2338,0.1549 -0.3741,0.1549 h -15.857 c -0.13467,-0.0083 -0.26112,-0.0676 -0.35355,-0.1659 -0.09244,-0.0983 -0.1439,-0.2282 -0.1439,-0.3631 0,-0.1349 0.05146,-0.2648 0.1439,-0.3631 0.09243,-0.0983 0.21888,-0.1576 0.35355,-0.1659 l 15.857,0.003 c 0.0693,-3e-4 0.138,0.0131 0.2021,0.0394 0.0641,0.0263 0.1224,0.065 0.1715,0.1139 0.0491,0.0488 0.0881,0.1069 0.1148,0.1709 0.0267,0.0639 0.0405,0.1325 0.0406,0.2018 z"
     id="path2821"
     inkscape:connector-curvature="0"
     style="fill:#ffd983" />
  <g
     id="g3470"
     transform="matrix(0.58823529,0,0,0.55555556,-1.3432815,10.755046)">
    <g
       id="g3483"
       transform="matrix(1.5,0,0,1.5,0.78357856,-19.359082)">
      <g
         id="g3383">
        <path
           style="fill:#f4900c"
           inkscape:connector-curvature="0"
           id="path2793"
           d="M 18,36 C 27.3888,36 35,28.3888 35,19 35,9.61116 27.3888,2 18,2 8.61116,2 1,9.61116 1,19 1,28.3888 8.61116,36 18,36 Z" />
        <path
           style="fill:#ffcc4d"
           inkscape:connector-curvature="0"
           id="path2795"
           d="M 18,34 C 27.3888,34 35,26.3888 35,17 35,7.61116 27.3888,0 18,0 8.61116,0 1,7.61116 1,17 1,26.3888 8.61116,34 18,34 Z" />
      </g>
      <g
         id="g3459">
        <path
           style="fill:#ffe8b6"
           inkscape:connector-curvature="0"
           id="path2797"
           d="M 18,32 C 25.732,32 32,25.732 32,18 32,10.268 25.732,4 18,4 10.268,4 4,10.268 4,18 c 0,7.732 6.268,14 14,14 z" />
        <path
           id="path2799"
           d="M 18,31 C 25.732,31 32,24.732 32,17 32,9.26801 25.732,3 18,3 10.268,3 4,9.26801 4,17 c 0,7.732 6.268,14 14,14 z"
           inkscape:connector-curvature="0"
           style="fill:#ffac33" />
        <g
           transform="matrix(0.56796436,0,0,0.56796436,1.3089712,15.153296)"
           id="text3376"
           style="font-style:normal;font-weight:normal;font-size:40px;line-height:1.25;font-family:sans-serif;letter-spacing:0px;word-spacing:0px;fill:#ffd983;fill-opacity:1;stroke:none"
           aria-label="$">
          <path
             inkscape:connector-curvature="0"
             id="path3378"
             style="font-style:normal;font-variant:normal;font-weight:normal;font-stretch:normal;font-family:'Quicksand Medium';-inkscape-font-specification:'Quicksand Medium, ';fill:#ffd983;fill-opacity:1"
             d="m 39.407458,9.5647454 q 0,2.9999996 -2.16,5.0799996 -2.12,2.08 -5.44,2.68 v 3.24 q 0,0.84 -0.56,1.36 -0.52,0.56 -1.36,0.56 -0.8,0 -1.36,-0.56 -0.52,-0.52 -0.52,-1.36 v -3.16 q -2.32,-0.2 -4.2,-1 -1.88,-0.8 -3.6,-2.4 -0.84,-0.72 -0.84,-1.64 0,-0.72 0.56,-1.28 0.56,-0.6 1.32,-0.6 0.68,0 1.16,0.44 1.28,1.2 2.64,1.88 1.36,0.68 2.96,0.92 V 4.4847454 q -3.84,-0.88 -5.88,-2.76 -2.04,-1.91999999 -2.04,-5.2 0,-3.16 2.16,-5.2 2.2,-2.0800004 5.76,-2.5200004 v -2.08 q 0,-0.84 0.56,-1.36 0.56,-0.56 1.4,-0.56 0.8,0 1.32,0.56 0.52,0.52 0.52,1.36 v 2.12 q 1.88,0.28 3.48,1 1.6,0.7200004 2.68,1.7600004 0.92,0.8 0.92,1.72 0,0.72 -0.56,1.28 -0.52,0.56 -1.28,0.56 -0.56,0 -0.92,-0.32 -0.72,-0.72 -1.88,-1.32 -1.16,-0.6 -2.44,-0.88 v 8.88 q 3.84,1 5.72,2.8 1.88,1.76 1.88,5.24 z m -15.52,-13.2 q 0,1.6 1.04,2.6 1.08,0.96000001 3.08,1.60000001 V -7.5152546 q -1.92,0.32 -3.04,1.36 -1.08,1.04 -1.08,2.52 z m 7.92,17.1599996 q 1.68,-0.44 2.72,-1.44 1.04,-1 1.04,-2.3599996 -0.04,-1.52 -1,-2.52 -0.92,-1.04 -2.76,-1.72 z" />
        </g>
      </g>
    </g>
  </g>
</svg>
